<svg width="38" height="39" viewBox="0 0 38 39" fill="none" xmlns="http://www.w3.org/2000/svg">
<g filter="url(#filter0_d_253_293)">
<path d="M16.1378 2.16534C17.831 0.884408 20.169 0.884408 21.8622 2.16534C22.7113 2.80767 23.7518 3.14574 24.8162 3.12514C26.9389 3.08408 28.8305 4.45838 29.4474 6.4899C29.7568 7.50863 30.3998 8.39369 31.2731 9.00271C33.0145 10.2172 33.737 12.4409 33.042 14.447C32.6935 15.453 32.6935 16.547 33.042 17.553C33.737 19.5591 33.0145 21.7828 31.2731 22.9973C30.3998 23.6063 29.7568 24.4914 29.4474 25.5101C28.8305 27.5416 26.9389 28.9159 24.8162 28.8749C23.7518 28.8543 22.7113 29.1923 21.8622 29.8347C20.169 31.1156 17.831 31.1156 16.1378 29.8347C15.2887 29.1923 14.2482 28.8543 13.1838 28.8749C11.0611 28.9159 9.1695 27.5416 8.5526 25.5101C8.24324 24.4914 7.60021 23.6063 6.72693 22.9973C4.98547 21.7828 4.26296 19.5591 4.95797 17.553C5.3065 16.547 5.3065 15.453 4.95797 14.447C4.26296 12.4409 4.98547 10.2172 6.72693 9.00271C7.60021 8.39369 8.24324 7.50863 8.5526 6.4899C9.1695 4.45838 11.0611 3.08408 13.1838 3.12514C14.2482 3.14574 15.2887 2.80767 16.1378 2.16534Z" fill="#FFF1C3"/>
<path d="M16.2891 2.36426C17.8928 1.15135 20.1072 1.15135 21.7109 2.36426C22.5489 2.99819 23.5644 3.3513 24.6113 3.375H25.0088C26.9426 3.41776 28.6418 4.69818 29.208 6.5625C29.5337 7.63491 30.2106 8.5669 31.1299 9.20801C32.7796 10.3585 33.4641 12.4648 32.8057 14.3652C32.4388 15.4242 32.4388 16.5758 32.8057 17.6348C33.4641 19.5352 32.7796 21.6415 31.1299 22.792C30.2106 23.4331 29.5337 24.3651 29.208 25.4375C28.6418 27.3018 26.9426 28.5822 25.0088 28.625H24.6113C23.5644 28.6487 22.5489 29.0018 21.7109 29.6357C20.1072 30.8487 17.8928 30.8487 16.2891 29.6357C15.4511 29.0018 14.4356 28.6487 13.3887 28.625H12.9912C11.0574 28.5822 9.35816 27.3018 8.79199 25.4375C8.46634 24.3651 7.78941 23.4331 6.87012 22.792C5.22043 21.6415 4.53595 19.5352 5.19434 17.6348C5.56117 16.5758 5.56117 15.4242 5.19434 14.3652C4.53595 12.4648 5.22043 10.3585 6.87012 9.20801C7.78941 8.5669 8.46634 7.63491 8.79199 6.5625C9.35816 4.69818 11.0574 3.41777 12.9912 3.375H13.3887C14.4356 3.3513 15.4511 2.99819 16.2891 2.36426Z" stroke="white" stroke-opacity="0.73" stroke-width="0.5"/>
</g>
<path d="M15.8608 20V11.2727H19.1335C19.804 11.2727 20.3665 11.3892 20.821 11.6222C21.2784 11.8551 21.6236 12.1818 21.8565 12.6023C22.0923 13.0199 22.2102 13.5071 22.2102 14.0639C22.2102 14.6236 22.0909 15.1094 21.8523 15.5213C21.6165 15.9304 21.2685 16.2472 20.8082 16.4716C20.348 16.6932 19.7827 16.804 19.1122 16.804H16.7812V15.4915H18.8991C19.2912 15.4915 19.6122 15.4375 19.8622 15.3295C20.1122 15.2187 20.2969 15.0582 20.4162 14.848C20.5384 14.6349 20.5994 14.3736 20.5994 14.0639C20.5994 13.7543 20.5384 13.4901 20.4162 13.2713C20.294 13.0497 20.108 12.8821 19.858 12.7685C19.608 12.652 19.2855 12.5938 18.8906 12.5938H17.4418V20H15.8608ZM20.3693 16.0455L22.5298 20H20.7656L18.6435 16.0455H20.3693Z" fill="black" fill-opacity="0.75"/>
<defs>
<filter id="filter0_d_253_293" x="0.696289" y="1.20508" width="36.6074" height="37.5898" filterUnits="userSpaceOnUse" color-interpolation-filters="sRGB">
<feFlood flood-opacity="0" result="BackgroundImageFix"/>
<feColorMatrix in="SourceAlpha" type="matrix" values="0 0 0 0 0 0 0 0 0 0 0 0 0 0 0 0 0 0 127 0" result="hardAlpha"/>
<feOffset dy="4"/>
<feGaussianBlur stdDeviation="2"/>
<feComposite in2="hardAlpha" operator="out"/>
<feColorMatrix type="matrix" values="0 0 0 0 0 0 0 0 0 0 0 0 0 0 0 0 0 0 0.1 0"/>
<feBlend mode="normal" in2="BackgroundImageFix" result="effect1_dropShadow_253_293"/>
<feBlend mode="normal" in="SourceGraphic" in2="effect1_dropShadow_253_293" result="shape"/>
</filter>
</defs>
</svg>
