<svg width="18" height="18" viewBox="0 0 18 18" fill="none" xmlns="http://www.w3.org/2000/svg">
  <!-- Вилка -->
  <path d="M6 2V16M6 2C6 2 6.5 2 7 2C7.5 2 8 2.5 8 3V5C8 5.5 7.5 6 7 6C6.5 6 6 5.5 6 5V2ZM6 2C6 2 5.5 2 5 2C4.5 2 4 2.5 4 3V5C4 5.5 4.5 6 5 6C5.5 6 6 5.5 6 5V2Z" stroke="black" stroke-width="1.5" stroke-linecap="round" stroke-linejoin="round"/>
  
  <!-- Тарелка -->
  <path d="M14 8C14 10.2091 12.2091 12 10 12C7.79086 12 6 10.2091 6 8C6 5.79086 7.79086 4 10 4C12.2091 4 14 5.79086 14 8Z" stroke="black" stroke-width="1.5" stroke-linecap="round" stroke-linejoin="round"/>
  <path d="M10 12V16" stroke="black" stroke-width="1.5" stroke-linecap="round" stroke-linejoin="round"/>
</svg>
