<svg width="20" height="13" viewBox="0 0 20 13" fill="none" xmlns="http://www.w3.org/2000/svg">
<path d="M2.14286 0C0.967857 0 0 0.88075 0 1.95V11.05C0 12.1192 0.967857 13 2.14286 13H17.8571C19.0321 13 20 12.1192 20 11.05V1.95C20 0.88075 19.0321 0 17.8571 0H2.14286ZM2.14286 1.3H17.8571C18.2607 1.3 18.5714 1.58275 18.5714 1.95V3.25H2.14286V4.55H18.5714V11.05C18.5714 11.4172 18.2607 11.7 17.8571 11.7H2.14286C1.73929 11.7 1.42857 11.4172 1.42857 11.05V1.95C1.42857 1.58275 1.73929 1.3 2.14286 1.3Z" fill="black"/>
</svg> 