<svg width="19" height="19" viewBox="0 0 19 19" fill="none" xmlns="http://www.w3.org/2000/svg">
<path d="M18.5 14.5C17.1739 14.5 15.9021 13.9732 14.9645 13.0355C14.0268 12.0979 13.5 10.8261 13.5 9.5C13.5 8.17392 14.0268 6.90215 14.9645 5.96447C15.9021 5.02678 17.1739 4.5 18.5 4.5" stroke="black" stroke-linecap="round" stroke-linejoin="round"/>
<path d="M18.5 18.5C17.3181 18.5 16.1478 18.2672 15.0558 17.8149C13.9639 17.3626 12.9718 16.6997 12.136 15.864C11.3003 15.0282 10.6374 14.0361 10.1851 12.9442C9.73279 11.8522 9.5 10.6819 9.5 9.5C9.5 8.3181 9.73279 7.14778 10.1851 6.05585C10.6374 4.96392 11.3003 3.97177 12.136 3.13604C12.9718 2.30031 13.9639 1.63738 15.0558 1.18508C16.1478 0.732792 17.3181 0.5 18.5 0.5M3.5 0.5V5.5M3.5 18.5V8.5M1 5.5H6M6.5 0.5V4.852C6.5 9.716 0.5 9.716 0.5 4.852V0.5" stroke="black" stroke-linecap="round" stroke-linejoin="round"/>
</svg>
